<?xml version="1.0" encoding="utf-8"?>
<!-- Generator: Adobe Illustrator 15.0.0, SVG Export Plug-In  -->
<!DOCTYPE svg PUBLIC "-//W3C//DTD SVG 1.1//EN" "http://www.w3.org/Graphics/SVG/1.1/DTD/svg11.dtd" [
	<!ENTITY ns_flows "http://ns.adobe.com/Flows/1.0/">
]>
<svg version="1.1"
	 xmlns="http://www.w3.org/2000/svg" xmlns:xlink="http://www.w3.org/1999/xlink" xmlns:a="http://ns.adobe.com/AdobeSVGViewerExtensions/3.0/"
	 x="0px" y="0px" width="64px" height="64px" viewBox="374 2242 64 64" overflow="visible" enable-background="new 374 2242 64 64"
	 xml:space="preserve">
<defs>
</defs>
<rect display="none" fill="#F1F2F2" width="590" height="7500"/>
<rect x="374" y="2242" display="none" fill="#A7A9AC" width="64" height="64"/>
<path fill="none" stroke="#414042" stroke-width="2" stroke-linecap="round" stroke-linejoin="round" stroke-miterlimit="10" d="
	M420.216,2270c2.891-1.045,4.46-4.04,3.503-6.691c-0.958-2.652-4.079-3.954-6.97-2.909"/>
<path fill="none" stroke="#414042" stroke-width="4" stroke-linecap="round" stroke-linejoin="round" stroke-miterlimit="10" d="
	M415.977,2271.467c-0.505-1.65-1.086-3.381-1.727-5.159c-0.509-1.406-1.031-2.76-1.557-4.057c-3.268-8.142-6.687-13.86-8.117-13.345
	c0,0-1.998,0.722-1.276,2.72c2.887,7.993-6.383,13.601-6.383,13.601L380.93,2271c0,0-1.998,0.723-1.276,2.721
	c0.101,0.277,0.226,0.625,0.361,0.999l-1,0.361c-2.207,0.797-3.351,3.232-2.554,5.44c0.798,2.206,3.233,3.35,5.44,2.553l1-0.361
	c0.135,0.373,0.261,0.721,0.361,1c0.721,1.998,2.72,1.277,2.72,1.277l2.997-1.083l5.052,13.988c0.598,1.655,2.425,2.512,4.079,1.913
	c1.656-0.598,2.514-2.423,1.916-4.078l-5.051-13.99l6.993-2.525c0,0,10.353-2.609,13.239,5.385c0.722,1.998,2.72,1.276,2.72,1.276
	C419.297,2285.381,418.406,2279.318,415.977,2271.467z"/>
<line fill="none" stroke="#414042" stroke-width="2" stroke-linecap="round" stroke-linejoin="round" stroke-miterlimit="10" x1="421" y1="2255.021" x2="424.447" y2="2248"/>
<line fill="none" stroke="#414042" stroke-width="2" stroke-linecap="round" stroke-linejoin="round" stroke-miterlimit="10" x1="426" y1="2259" x2="434" y2="2253.021"/>
<line fill="none" stroke="#414042" stroke-width="2" stroke-linecap="round" stroke-linejoin="round" stroke-miterlimit="10" x1="428" y1="2265.021" x2="437" y2="2265.021"/>
<line fill="none" stroke="#414042" stroke-width="2" stroke-linecap="round" stroke-linejoin="round" stroke-miterlimit="10" x1="427" y1="2272" x2="434" y2="2276"/>
<line fill="none" stroke="#414042" stroke-width="2" stroke-linecap="round" stroke-linejoin="round" stroke-miterlimit="10" x1="395" y1="2271" x2="397" y2="2276"/>
<line fill="none" stroke="#414042" stroke-width="2" stroke-linecap="round" stroke-linejoin="round" stroke-miterlimit="10" x1="400" y1="2269" x2="402" y2="2274"/>
</svg>
