<?xml version="1.0" encoding="utf-8"?>
<!-- Generator: Adobe Illustrator 15.0.0, SVG Export Plug-In  -->
<!DOCTYPE svg PUBLIC "-//W3C//DTD SVG 1.1//EN" "http://www.w3.org/Graphics/SVG/1.1/DTD/svg11.dtd" [
	<!ENTITY ns_flows "http://ns.adobe.com/Flows/1.0/">
]>
<svg version="1.1"
	 xmlns="http://www.w3.org/2000/svg" xmlns:xlink="http://www.w3.org/1999/xlink" xmlns:a="http://ns.adobe.com/AdobeSVGViewerExtensions/3.0/"
	 x="0px" y="0px" width="64px" height="64px" viewBox="486 2363 64 64" overflow="visible" enable-background="new 486 2363 64 64"
	 xml:space="preserve">
<defs>
</defs>
<rect display="none" fill="#F1F2F2" width="590" height="7500"/>
<rect x="486" y="2363" display="none" fill="#A7A9AC" width="64" height="64"/>
<path fill="none" stroke="#414042" stroke-width="4" stroke-linecap="round" stroke-linejoin="round" stroke-miterlimit="10" d="
	M519.185,2403.141c-0.003,2.375-0.911,4.751-2.724,6.564l-11.497,11.497c-3.63,3.628-9.511,3.626-13.139-0.001l0,0
	c-3.626-3.629-3.626-9.51,0.003-13.141l11.498-11.496c1.657-1.656,3.784-2.556,5.952-2.7"/>
<path fill="none" stroke="#414042" stroke-width="4" stroke-linecap="round" stroke-linejoin="round" stroke-miterlimit="10" d="
	M526.324,2396.004c2.374-0.002,4.75-0.91,6.562-2.724l11.499-11.497c3.628-3.628,3.629-9.51,0.002-13.14l0,0
	c-3.628-3.628-9.509-3.628-13.139,0l-11.497,11.497c-1.657,1.656-2.559,3.783-2.701,5.953"/>
<path fill="none" stroke="#414042" stroke-width="2" stroke-linecap="round" stroke-linejoin="round" stroke-miterlimit="10" d="
	M511.536,2404.777c-0.906,0.906-2.378,0.906-3.284,0l0,0c-0.906-0.908-0.906-2.378,0.001-3.285l15.603-15.604
	c0.908-0.906,2.378-0.906,3.286,0l0,0c0.906,0.908,0.904,2.379-0.001,3.287L511.536,2404.777z"/>
</svg>
