<?xml version="1.0" encoding="utf-8"?>
<!-- Generator: Adobe Illustrator 15.0.0, SVG Export Plug-In  -->
<!DOCTYPE svg PUBLIC "-//W3C//DTD SVG 1.1//EN" "http://www.w3.org/Graphics/SVG/1.1/DTD/svg11.dtd" [
	<!ENTITY ns_flows "http://ns.adobe.com/Flows/1.0/">
]>
<svg version="1.1"
	 xmlns="http://www.w3.org/2000/svg" xmlns:xlink="http://www.w3.org/1999/xlink" xmlns:a="http://ns.adobe.com/AdobeSVGViewerExtensions/3.0/"
	 x="0px" y="0px" width="64px" height="64px" viewBox="486 4662 64 64" enable-background="new 486 4662 64 64"
	 xml:space="preserve">
<defs>
</defs>
<rect display="none" fill="#F1F2F2" width="590" height="7500"/>
<rect x="486" y="4662" display="none" fill="#A7A9AC" width="64" height="64"/>
<path fill="none" stroke="#414042" stroke-width="4" stroke-linecap="round" stroke-linejoin="round" stroke-miterlimit="10" d="
	M548,4719.5c0,1.104-0.896,2-2,2h-56c-1.104,0-2-0.896-2-2v-42c0-1.104,0.896-2,2-2h56c1.104,0,2,0.896,2,2V4719.5z"/>
<path fill="none" stroke="#414042" stroke-width="2" stroke-linecap="round" stroke-linejoin="round" stroke-miterlimit="10" d="
	M543,4714.5c0,1.104-0.896,2-2,2h-46c-1.104,0-2-0.896-2-2v-32c0-1.104,0.896-2,2-2h46c1.104,0,2,0.896,2,2V4714.5z"/>
<line fill="none" stroke="#414042" stroke-width="2" stroke-linecap="round" stroke-linejoin="round" stroke-miterlimit="10" x1="493" y1="4680.5" x2="490" y2="4677.5"/>
<line fill="none" stroke="#414042" stroke-width="2" stroke-linecap="round" stroke-linejoin="round" stroke-miterlimit="10" x1="543" y1="4680.5" x2="546" y2="4677.5"/>
<line fill="none" stroke="#414042" stroke-width="2" stroke-linecap="round" stroke-linejoin="round" stroke-miterlimit="10" x1="493" y1="4716.5" x2="490" y2="4719.5"/>
<line fill="none" stroke="#414042" stroke-width="2" stroke-linecap="round" stroke-linejoin="round" stroke-miterlimit="10" x1="543" y1="4716.5" x2="546" y2="4719.5"/>
<line fill="none" stroke="#414042" stroke-width="2" stroke-linecap="round" stroke-linejoin="round" stroke-miterlimit="10" x1="506" y1="4674.5" x2="517" y2="4665.5"/>
<line fill="none" stroke="#414042" stroke-width="2" stroke-linecap="round" stroke-linejoin="round" stroke-miterlimit="10" x1="532" y1="4674.5" x2="522" y2="4665.5"/>
<circle fill="none" stroke="#414042" stroke-width="2" stroke-linecap="round" stroke-linejoin="round" stroke-miterlimit="10" cx="519.5" cy="4665" r="2"/>
<path fill="none" stroke="#414042" stroke-width="2" stroke-linecap="round" stroke-linejoin="round" stroke-miterlimit="10" d="
	M499,4703c0,0,9-10,19-10"/>
<path fill="none" stroke="#414042" stroke-width="2" stroke-linecap="round" stroke-linejoin="round" stroke-miterlimit="10" d="
	M532.947,4704.79c0.702,0.853,0.58,2.113-0.272,2.815l0,0c-0.853,0.701-2.112,0.58-2.815-0.273l-10.807-13.122
	c-0.702-0.853-0.58-2.113,0.272-2.815l0,0c0.853-0.701,2.113-0.58,2.815,0.272L532.947,4704.79z"/>
</svg>
